<svg xmlns="http://www.w3.org/2000/svg" width="20pt" height="20pt" viewBox="0 0 20 20"><defs><linearGradient id="a" gradientUnits="userSpaceOnUse" x1="68.53" y1="64.72" x2="-13.65" y2="-17.47" gradientTransform="scale(.41667)"><stop offset="0" style="stop-color:#27e9de;stop-opacity:1"/><stop offset=".52" style="stop-color:#03a4ec;stop-opacity:1"/><stop offset="1" style="stop-color:#2547a8;stop-opacity:1"/></linearGradient><linearGradient id="b" gradientUnits="userSpaceOnUse" x1="63.52" y1="59.6" x2="18.27" y2="14.48" gradientTransform="scale(.41667)"><stop offset="0" style="stop-color:#27e9de;stop-opacity:1"/><stop offset=".52" style="stop-color:#03a4ec;stop-opacity:1"/><stop offset="1" style="stop-color:#2547a8;stop-opacity:1"/></linearGradient><linearGradient id="c" gradientUnits="userSpaceOnUse" x1="39.51" y1="39.94" x2="-42.16" y2="-16.56" gradientTransform="scale(.41667)"><stop offset="0" style="stop-color:#273a9b;stop-opacity:1"/><stop offset=".56" style="stop-color:#202f65;stop-opacity:1"/><stop offset="1" style="stop-color:#021e2f;stop-opacity:1"/></linearGradient></defs><path style="stroke:none;fill-rule:nonzero;fill:url(#a)" d="m15.05 7.89 1.364.837a16.86 16.86 0 0 0 2.238-7.38A16.75 16.75 0 0 0 9.035 5.13l.578.926-.953-.598a16.74 16.74 0 0 0-5.742 11.625 16.875 16.875 0 0 0 7.598-2.355l-.93-1.485 1.668 1.028a16.561 16.561 0 0 0 2.5-2.082 16.87 16.87 0 0 0 2.23-2.766zm0 0"/><path style="stroke:none;fill-rule:nonzero;fill:url(#b)" d="M13.77 12.184A16.87 16.87 0 0 0 16 9.418l-.953-1.523 1.363.835a16.814 16.814 0 0 0 2.242-7.382L2.937 17.047a16.847 16.847 0 0 0 7.602-2.36l-.93-1.484 1.664 1.031a16.563 16.563 0 0 0 2.497-2.05zm0 0"/><path style="stroke:none;fill-rule:nonzero;fill:url(#c)" d="M15.73 4.496a.437.437 0 0 0 .075-.113l.152-.34-.34.152a.437.437 0 0 0-.113.075l-13.777 13a.942.942 0 0 0-.266.437l-.098.379a.445.445 0 0 0 .117.434c.114.113.278.16.434.117l.379-.098a.942.942 0 0 0 .437-.266zm0 0"/></svg>